HIERARCHY
ROOT Hips
{
    OFFSET 0.000000 0.000000 0.000000
    CHANNELS 6 Xposition Yposition Zposition Zrotation Xrotation Yrotation
    JOINT Spine
    {
        OFFSET -0.000000 0.066269 -0.000000
        CHANNELS 3 Zrotation Xrotation Yrotation
        JOINT Spine1
        {
            OFFSET -0.000000 0.205844 -0.000000
            CHANNELS 3 Zrotation Xrotation Yrotation
            JOINT Neck
            {
                OFFSET -0.000000 0.225106 -0.000000
                CHANNELS 3 Zrotation Xrotation Yrotation
                JOINT Head
                {
                    OFFSET -0.000000 0.093355 0.018050
                    CHANNELS 3 Zrotation Xrotation Yrotation
                    End Site
                    {
                        OFFSET 0.000000 0.180501 0.000000
                    }
                }
            }
            JOINT LeftShoulder
            {
                OFFSET 0.035943 0.203066 -0.000791
                CHANNELS 3 Zrotation Xrotation Yrotation
                JOINT LeftArm
                {
                    OFFSET 0.131826 -0.000000 0.000000
                    CHANNELS 3 Zrotation Xrotation Yrotation
                    JOINT LeftForeArm
                    {
                        OFFSET 0.279247 0.000000 -0.000000
                        CHANNELS 3 Zrotation Xrotation Yrotation
                        JOINT LeftHand
                        {
                            OFFSET 0.238066 -0.000000 0.000000
                            CHANNELS 3 Zrotation Xrotation Yrotation
                            End Site
                            {
                                OFFSET -0.000000 -0.135376 0.000000
                            }
                        }
                    }
                }
            }
            JOINT RightShoulder
            {
                OFFSET -0.035943 0.203066 -0.000791
                CHANNELS 3 Zrotation Xrotation Yrotation
                JOINT RightArm
                {
                    OFFSET -0.131826 -0.000000 0.000000
                    CHANNELS 3 Zrotation Xrotation Yrotation
                    JOINT RightForeArm
                    {
                        OFFSET -0.279247 0.000000 -0.000000
                        CHANNELS 3 Zrotation Xrotation Yrotation
                        JOINT RightHand
                        {
                            OFFSET -0.238066 -0.000000 -0.000000
                            CHANNELS 3 Zrotation Xrotation Yrotation
                            End Site
                            {
                                OFFSET 0.000000 -0.135376 0.000000
                            }
                        }
                    }
                }
            }
        }
    }
    JOINT LeftUpLeg
    {
        OFFSET 0.090251 -0.000000 -0.000000
        CHANNELS 3 Zrotation Xrotation Yrotation
        JOINT LeftLeg
        {
            OFFSET 0.000000 -0.403732 0.000000
            CHANNELS 3 Zrotation Xrotation Yrotation
            JOINT LeftFoot
            {
                OFFSET -0.000000 -0.388189 0.000000
                CHANNELS 3 Zrotation Xrotation Yrotation
                JOINT LeftToeBase
                {
                    OFFSET -0.000000 -0.058663 0.135376
                    CHANNELS 3 Zrotation Xrotation Yrotation
                    End Site
                    {
                        OFFSET 0.000000 0.000000 0.036100
                    }
                }
            }
        }
    }
    JOINT RightUpLeg
    {
        OFFSET -0.090251 0.000000 0.000000
        CHANNELS 3 Zrotation Xrotation Yrotation
        JOINT RightLeg
        {
            OFFSET 0.000000 -0.403732 0.000000
            CHANNELS 3 Zrotation Xrotation Yrotation
            JOINT RightFoot
            {
                OFFSET 0.000000 -0.388189 -0.000000
                CHANNELS 3 Zrotation Xrotation Yrotation
                JOINT RightToeBase
                {
                    OFFSET 0.000000 -0.058663 0.135376
                    CHANNELS 3 Zrotation Xrotation Yrotation
                    End Site
                    {
                        OFFSET 0.000000 0.000000 0.036100
                    }
                }
            }
        }
    }
}
MOTION
Frames:    8
Frame Time:    0.004167
0.278204    0.958024    -0.041350    -1.165201    -5.747391    -171.570221    0.725751    -14.097696    2.977042    2.834905    11.552681    2.265284    0.549077    11.697656    -3.287362    3.093872    -1.539352    -3.164089    4.333735    13.868301    -8.392498    -49.300159    12.652886    -1.824117    0.000006    -0.000003    -28.534126    82.786942    8.493484    1.070884    -1.567638    -1.245020    15.498661    36.863205    17.244331    49.917629    -7.285359    -0.136973    91.071259    -122.357117    -0.054970    -5.709483    4.103645    -0.921216    9.572869    0.000000    1.218214    -0.000001    -6.279054    -11.382834    -3.725017    0.000000    1.585093    0.000001    -7.169041    0.503041    -9.739873    0.000000    0.530992    -0.000000    6.551126    -12.330271    -16.878000    0.000000    -3.528723    0.000001    
0.278164    0.957985    -0.041266    -1.156306    -5.763935    -171.556305    0.736324    -14.119481    3.015780    2.840810    11.617746    2.296905    0.618793    11.655252    -3.328237    3.029314    -1.672821    -3.185678    4.389759    13.834444    -8.399787    -49.325756    12.783871    -1.825012    -0.000003    0.000003    -29.036764    82.657021    8.640670    1.109131    -1.649451    -0.964711    15.550571    37.014374    17.336182    49.799385    -6.910789    -0.123288    91.017128    -121.738564    0.049236    -5.785526    4.107038    -0.950237    9.578465    0.000000    1.224306    -0.000003    -6.286672    -11.379813    -3.735282    0.000000    1.605924    -0.000000    -7.167346    0.476086    -9.728212    -0.000000    0.544442    0.000000    6.545174    -12.335427    -16.897282    -0.000000    -3.556230    0.000001    
0.278090    0.957956    -0.041219    -1.151107    -5.766459    -171.537506    0.746698    -14.143116    3.053198    2.852308    11.673999    2.326609    0.655627    11.607908    -3.377015    3.014013    -1.732435    -3.225086    4.435315    13.798533    -8.420366    -49.337322    12.839816    -1.852394    0.000000    0.000002    -29.262379    82.598656    8.706696    1.126518    -1.684170    -0.733824    15.616834    36.989426    17.550045    49.686592    -6.806071    -0.099152    90.830650    -121.502213    0.058469    -5.769506    4.107557    -0.964948    9.571992    -0.000000    1.235265    -0.000002    -6.292922    -11.389091    -3.746339    0.000000    1.614241    0.000001    -7.168651    0.468189    -9.729296    0.000000    0.557032    -0.000000    6.538706    -12.338657    -16.914427    -0.000000    -3.567803    -0.000002    
0.278025    0.957937    -0.041302    -1.147920    -5.776691    -171.521317    0.753294    -14.153931    3.077821    2.852512    11.665568    2.350361    0.689926    11.592623    -3.420367    3.009298    -1.762869    -3.260822    4.434270    13.783782    -8.415613    -49.353508    12.894799    -1.863214    -0.000004    -0.000002    -29.486187    82.540710    8.772166    1.143903    -1.654818    -0.476136    15.696984    36.926090    17.802736    49.555603    -6.756236    -0.071524    90.603592    -121.312927    0.019928    -5.719602    4.107106    -0.975020    9.567486    0.000001    1.243550    -0.000001    -6.298364    -11.399054    -3.759009    -0.000000    1.622725    0.000001    -7.170179    0.462379    -9.731727    -0.000000    0.567757    -0.000000    6.529308    -12.348427    -16.931368    -0.000000    -3.579017    -0.000001    
0.277974    0.957916    -0.041332    -1.137679    -5.810239    -171.510071    0.759496    -14.185500    3.096362    2.858416    11.616907    2.369307    0.735763    11.657977    -3.469849    2.976739    -1.799426    -3.300875    4.445904    13.796644    -8.431748    -49.395142    13.102024    -1.850218    -0.000003    0.000003    -30.321785    82.324165    9.016372    1.210002    -1.549453    -0.211740    15.829061    36.773411    18.022999    49.398792    -6.707362    -0.039650    90.337219    -120.988686    -0.288993    -5.469584    4.110627    -1.011561    9.564591    0.000001    1.253463    0.000003    -6.303913    -11.422856    -3.775605    0.000000    1.653882    0.000001    -7.168653    0.429535    -9.733888    -0.000000    0.576116    -0.000000    6.523034    -12.357508    -16.947210    0.000000    -3.618995    0.000001    
0.277947    0.957899    -0.041341    -1.128873    -5.834535    -171.488068    0.765009    -14.217583    3.111919    2.858152    11.614098    2.383913    0.768532    11.674851    -3.506629    2.980185    -1.838484    -3.329489    4.453459    13.798940    -8.437403    -49.417679    13.293353    -1.840952    -0.000003    0.000001    -31.132265    82.113693    9.252883    1.275920    -1.456495    0.009381    15.929326    36.619236    18.280737    49.267746    -6.677482    -0.008319    90.071121    -120.930389    -0.592007    -5.205453    4.115667    -1.045002    9.557920    -0.000000    1.267375    -0.000002    -6.308421    -11.440152    -3.790128    0.000000    1.681661    -0.000001    -7.166217    0.397694    -9.761857    -0.000000    0.600443    -0.000000    6.522786    -12.362405    -16.945677    0.000000    -3.657741    -0.000003    
0.277895    0.957878    -0.041346    -1.121975    -5.853328    -171.464981    0.769830    -14.246235    3.125339    2.861089    11.619690    2.395388    0.786302    11.676194    -3.538992    3.001105    -1.863080    -3.356954    4.457184    13.793125    -8.435475    -49.429142    13.470222    -1.834420    -0.000003    0.000001    -31.918396    81.909134    9.481949    1.341551    -1.365698    0.194325    16.017979    36.449516    18.564190    49.155251    -6.644706    0.025613    89.780182    -121.026337    -0.865380    -4.938723    4.117609    -1.074879    9.548351    -0.000001    1.282613    -0.000002    -6.314801    -11.453452    -3.805353    -0.000000    1.706432    -0.000001    -7.166392    0.371235    -9.800626    -0.000000    0.627407    0.000000    6.522592    -12.375986    -16.933058    -0.000000    -3.692050    -0.000004    
0.277827    0.957860    -0.041333    -1.117733    -5.870293    -171.441376    0.774151    -14.271703    3.137366    2.862439    11.632434    2.405465    0.795493    11.658484    -3.568185    3.035754    -1.870441    -3.383501    4.453290    13.788910    -8.433755    -49.433994    13.634579    -1.833691    -0.000007    0.000000    -32.680897    81.710350    9.703796    1.406808    -1.272824    0.355723    16.094734    36.273262    18.864851    49.058819    -6.609012    0.060134    89.480980    -121.249451    -1.114626    -4.672944    4.115985    -1.102797    9.533444    -0.000000    1.298069    0.000001    -6.316244    -11.469023    -3.815673    0.000000    1.728002    0.000000    -7.169571    0.352452    -9.833855    -0.000000    0.641687    0.000000    6.520285    -12.382798    -16.926636    0.000000    -3.720828    0.000000    
